# AST/ASF file generated using VICON BodyLanguage
# -----------------------------------------------
:version 1.10
:name VICON
:units
  mass 1.0
  length 0.45
  angle deg
:documentation
   .ast/.asf automatically generated from VICON data using
   VICON BodyBuilder and BodyLanguage model FoxedUp or BRILLIANT.MOD
:root
   order TX TY TZ RX RY RZ
   axis XYZ
   position 0 0 0  
   orientation 0 0 0 
:bonedata
  begin
     id 1 
     name lhipjoint
     direction 0.561001 -0.76473 0.316963 
     length 2.4722 
     axis 0 0 0  XYZ
  end
  begin
     id 2 
     name lfemur
     direction 0.34202 -0.939693 0  
     length 7.59403  
     axis 0 0 20  XYZ
    dof rx ry rz
    limits (-160.0 20.0)
           (-70.0 70.0)
           (-60.0 70.0)
  end
  begin
     id 3 
     name ltibia
     direction 0.34202 -0.939693 0   
     length 7.89655   
     axis 0 0 20   XYZ
    dof rx
    limits (-10.0 170.0)
  end
  begin
     id 4 
     name lfoot
     direction 0.061296 -0.168409 0.98381   
     length 2.73287   
     axis -90 7.62852e-016 20   XYZ
    dof rx rz
    limits (-45.0 90.0)
           (-70.0 20.0)
  end
  begin
     id 5 
     name ltoes
     direction 1.53547e-011 -4.21984e-011 1   
     length 1.37057   
     axis -90 7.62852e-016 20   XYZ
    dof rx
    limits (-90.0 20.0)
  end
  begin
     id 6 
     name rhipjoint
     direction -0.559611 -0.765599 0.317323   
     length 2.46939  
     axis 0 0 0  XYZ 
  end
  begin
     id 7 
     name rfemur
     direction -0.34202 -0.939693 0   
     length 7.53712   
     axis 0 0 -20   XYZ
    dof rx ry rz
    limits (-160.0 20.0)
           (-70.0 70.0)
           (-70.0 60.0)
  end
  begin
     id 8 
     name rtibia
     direction -0.34202 -0.939693 0   
     length 8.12549   
     axis 0 0 -20   XYZ
    dof rx
    limits (-10.0 170.0)
 end
 begin
     id 9 
     name rfoot
     direction -0.066984 -0.184037 0.980634   
     length 2.67541  
     axis -90 -7.62852e-016 -20   XYZ
    dof rx rz
    limits (-45.0 90.0)
           (-20.0 70.0)
  end
  begin
     id 10 
     name rtoes
     direction -1.53549e-011 -4.21786e-011 1   
     length 1.34085   
     axis -90 -7.62852e-016 -20   XYZ
    dof rx
    limits (-90.0 20.0)
  end
  begin
     id 11 
     name lowerback
     direction -0.0522728 0.992594 -0.109658   
     length 2.05633   
     axis 0 0 0   XYZ
    dof rx ry rz
    limits (-20.0 45.0)
           (-30.0 30.0)
           (-30.0 30.0)
  end
  begin
     id 12 
     name upperback
     direction 0.00589338 0.999977 0.00335704   
     length 2.05845   
     axis 0 0 0   XYZ
    dof rx ry rz
    limits (-20.0 45.0)
           (-30.0 30.0)
           (-30.0 30.0)
  end
  begin
     id 13 
     name thorax
     direction 0.0292928 0.998059 0.0549487   
     length 2.09281   
     axis 0 0 0   XYZ
    dof rx ry rz
    limits (-20.0 45.0)
           (-30.0 30.0)
           (-30.0 30.0)
  end
  begin
     id 14 
     name lowerneck
     direction 0.0356368 0.980775 0.191858   
     length 1.84767   
     axis 0 0 0   XYZ
    dof rx ry rz
    limits (-20.0 45.0)
           (-30.0 30.0)
           (-30.0 30.0)
  end
  begin
     id 15 
     name upperneck
     direction -0.0227605 0.98931 -0.14404   
     length 1.89582   
     axis 0 0 0   XYZ
    dof rx ry rz
    limits (-20.0 45.0)
           (-30.0 30.0)
           (-30.0 30.0)
  end
  begin
     id 16
     name head
     direction -0.00932985 0.997511 -0.0698904  
     length 1.90213  
     axis 0 0 0   XYZ
    dof rx ry rz
    limits (-20.0 45.0)
           (-30.0 30.0)
           (-30.0 30.0)
  end
  begin
     id 17 
     name lclavicle
     direction 0.873442 0.479511 0.0846686  
     length 3.41193  
     axis 0 0 0   XYZ
    dof ry rz
    limits (-20.0 10.0)
           (0.0 20.0)
  end
  begin
     id 18 
     name lhumerus
     direction 1 -4.4897e-011 -5.62117e-018   
     length 5.59864   
     axis 180 -30 -90   XYZ
    dof rx ry rz
    limits (-60.0 90.0)
           (-90.0 90.0)
           (-90.0 90.0)
  end
  begin
     id 19
     name lradius
     direction 1 -4.48966e-011 -6.26295e-027   
     length 3.59542   
     axis 180 -30 -90   XYZ
    dof rx
    limits (-10.0 170.0)
  end
  begin
     id 20
     name lwrist
     direction 1 -4.48947e-011 -1.74096e-026   
     length 1.79771   
     axis 1.04567e-014 90 90   XYZ
    dof ry
    limits (-180.0 0.0)
 end
  begin
     id 21 
     name lhand
     direction 1 -4.49085e-011 -3.48469e-026   
     length 0.572014   
     axis 2.22196e-014 90 90   XYZ
    dof rx rz
    limits (-90.0 90.0)
           (-45.0 45.0)
  end
  begin
     id 22 
     name lfingers
     direction 1 -4.48884e-011 -6.96135e-026   
     length 0.461173   
     axis 4.44383e-014 90 90   XYZ
    dof rx
    limits (0.0 90.0)
  end
  begin
     id 23
     name lthumb
     direction 0.707107 -6.34976e-011 0.707107   
     length 0.662154   
     axis -90 45 -5.4397e-014   XYZ
    dof rx rz
    limits (-45.0 45.0)
           (-45.0 45.0)
  end
  begin
     id 24 
     name rclavicle
     direction -0.890242 0.443271 0.104786   
     length 3.46753  
     axis 0 0 0   XYZ 
    dof ry rz
    limits (-10.0 20.0)
           (-20.0 0.0)
  end
  begin
     id 25 
     name rhumerus
     direction -1 -4.48963e-011 -5.41723e-018  
     length 5.8094   
     axis 180 30 90   XYZ
    dof rx ry rz
    limits (-90.0 60.0)
           (-90.0 90.0)
           (-90.0 90.0)
  end
  begin
     id 26 
     name rradius
     direction -1 -4.48958e-011 -6.51059e-027   
     length 3.66953   
     axis 180 30 90   XYZ
    dof rx
    limits (-10.0 170.0)
  end
  begin
     id 27 
     name rwrist
     direction -1 -4.48975e-011 -1.74124e-026   
     length 1.83476   
     axis 1.04567e-014 -90 -90   XYZ
    dof ry
    limits (-180.0 0.0)
  end
  begin
     id 28
     name rhand
     direction -1 -4.49013e-011 -3.48326e-026   
     length 0.57843   
     axis 2.22196e-014 -90 -90   XYZ
    dof rx rz
    limits (-90.0 90.0)
           (-45.0 45.0)
  end
  begin
     id 29
     name rfingers
     direction -1 -4.49023e-011 -6.9669e-026   
     length 0.466345   
     axis 4.44383e-014 -90 -90   XYZ
    dof rx
    limits (0.0 90.0)
  end
  begin
     id 30
     name rthumb
     direction -0.707107 -6.34926e-011 0.707107   
     length 0.669581   
     axis -90 -45 5.4397e-014   XYZ
    dof rx rz
    limits (-45.0 45.0)
           (-45.0 45.0)
  end
:hierarchy
  begin
    root lhipjoint rhipjoint lowerback
    lhipjoint lfemur
    lfemur ltibia
    ltibia lfoot
    lfoot ltoes
    rhipjoint rfemur
    rfemur rtibia
    rtibia rfoot
    rfoot rtoes
    lowerback upperback
    upperback thorax
    thorax lowerneck lclavicle rclavicle
    lowerneck upperneck
    upperneck head
    lclavicle lhumerus
    lhumerus lradius
    lradius lwrist
    lwrist lhand lthumb
    lhand lfingers
    rclavicle rhumerus
    rhumerus rradius
    rradius rwrist
    rwrist rhand rthumb
    rhand rfingers
  end

#!OML:ASF H:\SkateBoarding\Project 1\Capture day 1\Session 1\Skater.ASF
:FULLY-SPECIFIED
:DEGREES
443
root -2.28955 19.7175 39.3804 -8.00446 65.491 -11.4636
lowerback 4.21261 -2.80456 -5.0757
upperback -2.35739 -4.09417 -1.22115
thorax -4.54301 -1.88354 1.89225
lowerneck -16.5032 -4.16663 -1.87008
upperneck 30.3227 -5.11888 -0.0183562
head 12.9176 -2.35103 -0.466891
rclavicle 2.96189e-014 1.90833e-014
rhumerus -37.5336 -3.9043 -90.6522
rradius 33.9561
rwrist -8.18044
rhand -30.5595 -6.41717
rfingers 7.12502
rthumb -3.85777 -36.362
lclavicle 2.96189e-014 1.90833e-014
lhumerus -28.5627 -17.9066 98.3999
lradius 38.0304
lwrist 26.2734
lhand -23.279 13.3551
lfingers 7.12502
lthumb 3.17364 43.3112
rfemur -16.6801 -6.5906 23.7062
rtibia 35.372
rfoot -39.7476 -6.58304
rtoes -1.07178
lfemur -7.56093 -1.63709 -13.2009
ltibia 36.7897
lfoot -39.2789 3.97222
ltoes -14.2143
444
root -2.29319 19.7284 39.6783 -8.15919 65.5318 -11.584
lowerback 4.0998 -2.79027 -5.05231
upperback -2.38223 -4.06697 -1.22353
thorax -4.50839 -1.87138 1.86924
lowerneck -16.4967 -4.18051 -1.91654
upperneck 30.4271 -5.11884 -0.0291079
head 12.9609 -2.35546 -0.46424
rclavicle 4.96962e-017 -1.43125e-014
rhumerus -37.3791 -4.61863 -90.5215
rradius 32.7867
rwrist -7.08623
rhand -29.9887 -6.45891
rfingers 7.12502
rthumb -3.30651 -36.413
lclavicle 4.96962e-017 -1.43125e-014
lhumerus -28.6092 -16.243 97.6756
lradius 36.1512
lwrist 25.015
lhand -23.299 13.2732
lfingers 7.12502
lthumb 3.15435 43.2296
rfemur -16.4605 -6.48462 23.6389
rtibia 35.0228
rfoot -39.6868 -6.77063
rtoes -0.969769
lfemur -7.43176 -1.92565 -13.3262
ltibia 36.6138
lfoot -39.3501 4.31154
ltoes -14.1543
445
root -2.29724 19.7376 39.9757 -8.28136 65.536 -11.659
lowerback 3.99886 -2.77443 -5.04652
upperback -2.40271 -4.03933 -1.22378
thorax -4.47469 -1.85845 1.85873
lowerneck -16.4836 -4.1915 -1.95761
upperneck 30.5167 -5.11499 -0.0450212
head 12.9963 -2.35872 -0.463548
rclavicle 2.85256e-014 -1.43125e-014
rhumerus -37.2092 -5.34365 -90.3667
rradius 31.6368
rwrist -5.89641
rhand -29.4028 -6.4857
rfingers 7.12502
rthumb -2.74071 -36.4478
lclavicle 2.85256e-014 -1.43125e-014
lhumerus -28.6357 -14.412 96.8545
lradius 34.2549
lwrist 23.556
lhand -23.3599 13.1693
lfingers 7.12502
lthumb 3.09557 43.1265
rfemur -16.2514 -6.35833 23.5722
rtibia 34.7147
rfoot -39.6249 -6.95872
rtoes -0.914669
lfemur -7.27769 -2.21848 -13.4618
ltibia 36.4413
lfoot -39.463 4.66093
ltoes -14.0867
446
root -2.30179 19.7453 40.2728 -8.37309 65.5032 -11.6903
lowerback 3.90881 -2.7538 -5.05869
upperback -2.4179 -4.00685 -1.22363
thorax -4.44079 -1.84262 1.85876
lowerneck -16.4604 -4.20241 -1.98579
upperneck 30.5878 -5.1133 -0.0677646
head 13.0213 -2.36286 -0.467552
rclavicle -1.00386e-014 2.06736e-014
rhumerus -37.0319 -6.08199 -90.1907
rradius 30.5238
rwrist -4.64201
rhand -28.8075 -6.49968
rfingers 7.12502
rthumb -2.16577 -36.4684
lclavicle -1.00386e-014 2.06736e-014
lhumerus -28.653 -12.4275 95.9315
lradius 32.3606
lwrist 21.9245
lhand -23.4729 13.0761
lfingers 7.12502
lthumb 2.98641 43.0349
rfemur -16.0521 -6.21227 23.5068
rtibia 34.4485
rfoot -39.5642 -7.1333
rtoes -0.887309
lfemur -7.09931 -2.50396 -13.6032
ltibia 36.2721
lfoot -39.6095 5.02173
ltoes -14.0445
447
root -2.30689 19.7511 40.5697 -8.44833 65.426 -11.689
lowerback 3.83281 -2.72834 -5.08524
upperback -2.42638 -3.96937 -1.22114
thorax -4.40713 -1.82394 1.86951
lowerneck -16.4338 -4.21153 -2.01849
upperneck 30.6464 -5.11266 -0.0765032
head 13.041 -2.36644 -0.465339
rclavicle -1.97791e-014 2.22639e-014
rhumerus -36.851 -6.80809 -90.0075
rradius 29.459
rwrist -3.34504
rhand -28.2422 -6.50996
rfingers 7.12502
rthumb -1.61984 -36.4836
lclavicle -1.97791e-014 2.22639e-014
lhumerus -28.6787 -10.2817 94.8972
lradius 30.498
lwrist 20.1286
lhand -23.6343 13.0158
lfingers 7.12502
lthumb 2.83056 42.9768
rfemur -15.8584 -6.04813 23.451
rtibia 34.2235
rfoot -39.5031 -7.28834
rtoes -0.881272
lfemur -6.89165 -2.76716 -13.7401
ltibia 36.1061
lfoot -39.7825 5.37358
ltoes -13.9975
448
root -2.31247 19.7553 40.8667 -8.49464 65.307 -11.6443
lowerback 3.76678 -2.69702 -5.1263
upperback -2.429 -3.92537 -1.22121
thorax -4.37278 -1.80171 1.88567
lowerneck -16.4024 -4.22137 -2.05035
upperneck 30.694 -5.11704 -0.0754785
head 13.0555 -2.37112 -0.460066
rclavicle -9.88954e-015 -5.08889e-014
rhumerus -36.6756 -7.5188 -89.8255
rradius 28.4598
rwrist -2.02866
rhand -27.7218 -6.52545
rfingers 7.12502
rthumb -1.11725 -36.5023
lclavicle -9.88954e-015 -5.08889e-014
lhumerus -28.7355 -7.98959 93.7459
lradius 28.703
lwrist 18.1797
lhand -23.8135 13.0227
lfingers 7.12502
lthumb 2.65751 42.9859
rfemur -15.6721 -5.87866 23.4002
rtibia 34.0376
rfoot -39.4278 -7.42685
rtoes -0.909639
lfemur -6.65814 -3.00481 -13.8777
ltibia 35.9431
lfoot -39.9771 5.72215
ltoes -13.9536
449
root -2.31835 19.758 41.1636 -8.51912 65.1444 -11.5662
lowerback 3.70821 -2.66081 -5.17602
upperback -2.42632 -3.87564 -1.22243
thorax -4.33712 -1.77653 1.90541
lowerneck -16.3671 -4.23131 -2.08841
upperneck 30.7344 -5.12569 -0.0574653
head 13.0669 -2.37633 -0.447688
rclavicle 1.6201e-014 7.95139e-015
rhumerus -36.5099 -8.18093 -89.6608
rradius 27.5438
rwrist -0.73313
rhand -27.262 -6.55892
rfingers 7.12502
rthumb -0.67317 -36.5376
lclavicle 1.6201e-014 7.95139e-015
lhumerus -28.8564 -5.59164 92.4821
lradius 27.0323
lwrist 16.1151
lhand -24.0037 13.1454
lfingers 7.12502
lthumb 2.47383 43.1108
rfemur -15.4942 -5.71239 23.3583
rtibia 33.8884
rfoot -39.3255 -7.55404
rtoes -0.984056
lfemur -6.39964 -3.20935 -14.0093
ltibia 35.7809
lfoot -40.1895 6.05188
ltoes -13.8942
450
root -2.32444 19.7594 41.4605 -8.53608 64.937 -11.4727
lowerback 3.65528 -2.61876 -5.22636
upperback -2.41915 -3.81833 -1.22378
thorax -4.30057 -1.7477 1.92516
lowerneck -16.3368 -4.2424 -2.13537
upperneck 30.7777 -5.14026 -0.0190293
head 13.0818 -2.38241 -0.42704
rclavicle -5.03919e-014 -3.02153e-014
rhumerus -36.3576 -8.76297 -89.5313
rradius 26.7285
rwrist 0.494899
rhand -26.8665 -6.61899
rfingers 7.12502
rthumb -0.291108 -36.5985
lclavicle -5.03919e-014 -3.02153e-014
lhumerus -29.0782 -3.15719 91.1253
lradius 25.5468
lwrist 14.0084
lhand -24.1898 13.4017
lfingers 7.12502
lthumb 2.29403 43.3691
rfemur -15.3263 -5.5587 23.3344
rtibia 33.7736
rfoot -39.1866 -7.67565
rtoes -1.10696
lfemur -6.11741 -3.37967 -14.1252
ltibia 35.6166
lfoot -40.4172 6.36482
ltoes -13.7983
451
root -2.33042 19.7599 41.7574 -8.54487 64.6803 -11.3633
lowerback 3.60583 -2.57025 -5.27189
upperback -2.40833 -3.7523 -1.22738
thorax -4.26332 -1.71483 1.93956
lowerneck -16.3147 -4.25437 -2.18898
upperneck 30.832 -5.15996 0.0368038
head 13.104 -2.38901 -0.399709
rclavicle -2.62396e-014 -2.22639e-014
rhumerus -36.225 -9.24452 -89.452
rradius 26.0307
rwrist 1.63803
rhand -26.5346 -6.7072
rfingers 7.12502
rthumb 0.0294479 -36.6869
lclavicle -2.62396e-014 -2.22639e-014
lhumerus -29.4201 -0.719745 89.6788
lradius 24.2758
lwrist 11.8751
lhand -24.3047 13.764
lfingers 7.12502
lthumb 2.18305 43.7326
rfemur -15.1678 -5.41123 23.3258
rtibia 33.6904
rfoot -39.0074 -7.80128
rtoes -1.29398
lfemur -5.80752 -3.5096 -14.2252
ltibia 35.4461
lfoot -40.6579 6.65392
ltoes -13.6593
452
root -2.33633 19.7597 42.0543 -8.53925 64.3828 -11.2376
lowerback 3.55769 -2.51943 -5.31681
upperback -2.39694 -3.68322 -1.23162
thorax -4.2266 -1.68048 1.95295
lowerneck -16.3037 -4.26559 -2.23845
upperneck 30.9024 -5.18131 0.0967821
head 13.1354 -2.39501 -0.372196
rclavicle -2.54444e-014 3.81667e-014
rhumerus -36.1136 -9.58641 -89.44
rradius 25.4629
rwrist 2.64887
rhand -26.2578 -6.81706
rfingers 7.12502
rthumb 0.29672 -36.7966
lclavicle -2.54444e-014 3.81667e-014
lhumerus -29.9156 1.59705 88.1866
lradius 23.2737
lwrist 9.86398
lhand -24.3539 14.2066
lfingers 7.12502
lthumb 2.13558 44.1756
rfemur -15.0233 -5.28082 23.3317
rtibia 33.6365
rfoot -38.7831 -7.92824
rtoes -1.54642
lfemur -5.47726 -3.59887 -14.3096
ltibia 35.2659
lfoot -40.9046 6.91489
ltoes -13.4784
453
root -2.34211 19.7591 42.3511 -8.53298 64.0434 -11.1111
lowerback 3.51047 -2.46629 -5.35298
upperback -2.38524 -3.61062 -1.23649
thorax -4.19097 -1.64466 1.96077
lowerneck -16.3142 -4.27428 -2.28223
upperneck 30.999 -5.20244 0.162188
head 13.1825 -2.399 -0.344326
rclavicle -3.77691e-014 1.59028e-015
rhumerus -36.025 -9.75397 -89.5169
rradius 25.0369
rwrist 3.47816
rhand -26.0282 -6.93458
rfingers 7.12502
rthumb 0.518478 -36.9137
lclavicle -3.77691e-014 1.59028e-015
lhumerus -30.5771 3.68245 86.691
lradius 22.566
lwrist 8.10191
lhand -24.3231 14.6751
lfingers 7.12502
lthumb 2.16531 44.6439
rfemur -14.8908 -5.16213 23.3583
rtibia 33.6095
rfoot -38.519 -8.05769
rtoes -1.86889
lfemur -5.12382 -3.65557 -14.3724
ltibia 35.0713
lfoot -41.1627 7.14637
ltoes -13.2481
454
root -2.34767 19.758 42.6477 -8.50914 63.6652 -10.9704
lowerback 3.45925 -2.41258 -5.38583
upperback -2.3758 -3.53691 -1.24263
thorax -4.15584 -1.60836 1.96535
lowerneck -16.3433 -4.27928 -2.31244
upperneck 31.121 -5.22036 0.221575
head 13.2437 -2.40031 -0.321275
rclavicle -9.93923e-017 3.18055e-015
rhumerus -35.9599 -9.71904 -89.6928
rradius 24.7555
rwrist 4.09934
rhand -25.8338 -7.04332
rfingers 7.12502
rthumb 0.706268 -37.0219
lclavicle -9.93923e-017 3.18055e-015
lhumerus -31.3983 5.44878 85.2441
lradius 22.1495
lwrist 6.73629
lhand -24.2264 15.0897
lfingers 7.12502
lthumb 2.25872 45.0575
rfemur -14.7739 -5.05257 23.3976
rtibia 33.6068
rfoot -38.2236 -8.17384
rtoes -2.23142
lfemur -4.75285 -3.67675 -14.4204
ltibia 34.8602
lfoot -41.4271 7.3462
ltoes -12.9785
455
root -2.35297 19.7566 42.9442 -8.46644 63.251 -10.8157
lowerback 3.40296 -2.36059 -5.41635
upperback -2.36987 -3.46515 -1.25032
thorax -4.12167 -1.57302 1.9671
lowerneck -16.3941 -4.27772 -2.33153
upperneck 31.2711 -5.23044 0.276134
head 13.321 -2.39694 -0.3015
rclavicle 1.58034e-014 -2.38542e-014
rhumerus -35.9184 -9.47312 -89.9722
rradius 24.6145
rwrist 4.50102
rhand -25.6697 -7.12029
rfingers 7.12502
rthumb 0.864748 -37.0983
lclavicle 1.58034e-014 -2.38542e-014
lhumerus -32.3643 6.82448 83.8928
lradius 22.0104
lwrist 5.92169
lhand -24.076 15.3691
lfingers 7.12502
lthumb 2.40396 45.3353
rfemur -14.671 -4.94379 23.448
rtibia 33.6244
rfoot -37.9059 -8.27696
rtoes -2.63701
lfemur -4.36546 -3.66908 -14.4579
ltibia 34.6316
lfoot -41.6993 7.52596
ltoes -12.6882
456
root -2.35807 19.7548 43.2404 -8.3945 62.8056 -10.637
lowerback 3.34048 -2.30762 -5.44614
upperback -2.36898 -3.39195 -1.26486
thorax -4.08985 -1.5369 1.96125
lowerneck -16.4578 -4.27171 -2.327
upperneck 31.442 -5.23727 0.3181
head 13.4089 -2.39061 -0.290577
rclavicle 1.45113e-014 3.18055e-015
rhumerus -35.9034 -9.04617 -90.3426
rradius 24.6071
rwrist 4.693
rhand -25.5074 -7.14675
rfingers 7.12502
rthumb 1.02151 -37.1241
lclavicle 1.45113e-014 3.18055e-015
lhumerus -33.4435 7.79099 82.6613
lradius 22.1048
lwrist 5.68709
lhand -23.8258 15.4473
lfingers 7.12502
lthumb 2.64559 45.4106
rfemur -14.5805 -4.83808 23.5025
rtibia 33.6589
rfoot -37.5898 -8.30395
rtoes -2.93588
lfemur -3.96527 -3.63119 -14.4916
ltibia 34.3857
lfoot -41.9799 7.68901
ltoes -12.4028
457
root -2.36308 19.7524 43.5363 -8.29889 62.3298 -10.443
lowerback 3.27087 -2.25329 -5.474
upperback -2.37518 -3.31663 -1.28251
thorax -4.06187 -1.49957 1.95096
lowerneck -16.5317 -4.26251 -2.3189
upperneck 31.6331 -5.24124 0.361846
head 13.5081 -2.38188 -0.279477
rclavicle -1.19271e-015 6.36111e-015
rhumerus -35.9163 -8.42647 -90.8002
rradius 24.7258
rwrist 4.6617
rhand -25.3479 -7.11924
rfingers 7.12502
rthumb 1.17559 -37.0957
lclavicle -1.19271e-015 6.36111e-015
lhumerus -34.6061 8.36551 81.5739
lradius 22.3896
lwrist 6.05454
lhand -23.4767 15.2958
lfingers 7.12502
lthumb 2.98271 45.2547
rfemur -14.5027 -4.72825 23.5654
rtibia 33.7059
rfoot -37.2128 -8.42623
rtoes -3.54438
lfemur -3.55746 -3.56607 -14.5195
ltibia 34.1241
lfoot -42.269 7.83815
ltoes -12.1265
